<svg width="185" height="44" viewBox="0 0 185 44" fill="none" xmlns="http://www.w3.org/2000/svg">
<rect x="0.25" y="0.25" width="184.5" height="43.5" rx="4.75" stroke="#D6D6D6" stroke-width="0.5"/>
<g clip-path="url(#clip0_240_327)">
<path d="M40 22C40 15.3726 34.6274 10 28 10C21.3726 10 16 15.3726 16 22C16 27.9895 20.3882 32.954 26.125 33.8542V25.4687H23.0781V22H26.125V19.3562C26.125 16.3487 27.9166 14.6875 30.6576 14.6875C31.9705 14.6875 33.3438 14.9219 33.3438 14.9219V17.875H31.8306C30.3399 17.875 29.875 18.8 29.875 19.7491V22H33.2031L32.6711 25.4687H29.875V33.8542C35.6117 32.954 40 27.9896 40 22Z" fill="#1877F2"/>
<path d="M32.6711 25.4688L33.2031 22H29.875V19.7491C29.875 18.7999 30.3399 17.875 31.8306 17.875H33.3438V14.9219C33.3438 14.9219 31.9705 14.6875 30.6575 14.6875C27.9166 14.6875 26.125 16.3488 26.125 19.3563V22H23.0781V25.4688H26.125V33.8542C26.7453 33.9514 27.3722 34.0001 28 34C28.6278 34.0001 29.2547 33.9514 29.875 33.8542V25.4688H32.6711Z" fill="white"/>
</g>
<path d="M68.2422 12.9375V30H65.9805V12.9375H68.2422ZM75.3906 20.6133V22.4648H67.75V20.6133H75.3906ZM76.5508 12.9375V14.7891H67.75V12.9375H76.5508ZM85.9961 27.832V21.3047C85.9961 20.8047 85.8945 20.3711 85.6914 20.0039C85.4961 19.6289 85.1992 19.3398 84.8008 19.1367C84.4023 18.9336 83.9102 18.832 83.3242 18.832C82.7773 18.832 82.2969 18.9258 81.8828 19.1133C81.4766 19.3008 81.1562 19.5469 80.9219 19.8516C80.6953 20.1562 80.582 20.4844 80.582 20.8359H78.4141C78.4141 20.3828 78.5312 19.9336 78.7656 19.4883C79 19.043 79.3359 18.6406 79.7734 18.2812C80.2188 17.9141 80.75 17.625 81.3672 17.4141C81.9922 17.1953 82.6875 17.0859 83.4531 17.0859C84.375 17.0859 85.1875 17.2422 85.8906 17.5547C86.6016 17.8672 87.1562 18.3398 87.5547 18.9727C87.9609 19.5977 88.1641 20.3828 88.1641 21.3281V27.2344C88.1641 27.6562 88.1992 28.1055 88.2695 28.582C88.3477 29.0586 88.4609 29.4688 88.6094 29.8125V30H86.3477C86.2383 29.75 86.1523 29.418 86.0898 29.0039C86.0273 28.582 85.9961 28.1914 85.9961 27.832ZM86.3711 22.3125L86.3945 23.8359H84.2031C83.5859 23.8359 83.0352 23.8867 82.5508 23.9883C82.0664 24.082 81.6602 24.2266 81.332 24.4219C81.0039 24.6172 80.7539 24.8633 80.582 25.1602C80.4102 25.4492 80.3242 25.7891 80.3242 26.1797C80.3242 26.5781 80.4141 26.9414 80.5938 27.2695C80.7734 27.5977 81.043 27.8594 81.4023 28.0547C81.7695 28.2422 82.2188 28.3359 82.75 28.3359C83.4141 28.3359 84 28.1953 84.5078 27.9141C85.0156 27.6328 85.418 27.2891 85.7148 26.8828C86.0195 26.4766 86.1836 26.082 86.207 25.6992L87.1328 26.7422C87.0781 27.0703 86.9297 27.4336 86.6875 27.832C86.4453 28.2305 86.1211 28.6133 85.7148 28.9805C85.3164 29.3398 84.8398 29.6406 84.2852 29.8828C83.7383 30.1172 83.1211 30.2344 82.4336 30.2344C81.5742 30.2344 80.8203 30.0664 80.1719 29.7305C79.5312 29.3945 79.0312 28.9453 78.6719 28.3828C78.3203 27.8125 78.1445 27.1758 78.1445 26.4727C78.1445 25.793 78.2773 25.1953 78.543 24.6797C78.8086 24.1562 79.1914 23.7227 79.6914 23.3789C80.1914 23.0273 80.793 22.7617 81.4961 22.582C82.1992 22.4023 82.9844 22.3125 83.8516 22.3125H86.3711ZM96.6484 28.4531C97.1641 28.4531 97.6406 28.3477 98.0781 28.1367C98.5156 27.9258 98.875 27.6367 99.1562 27.2695C99.4375 26.8945 99.5977 26.4688 99.6367 25.9922H101.699C101.66 26.7422 101.406 27.4414 100.938 28.0898C100.477 28.7305 99.8711 29.25 99.1211 29.6484C98.3711 30.0391 97.5469 30.2344 96.6484 30.2344C95.6953 30.2344 94.8633 30.0664 94.1523 29.7305C93.4492 29.3945 92.8633 28.9336 92.3945 28.3477C91.9336 27.7617 91.5859 27.0898 91.3516 26.332C91.125 25.5664 91.0117 24.7578 91.0117 23.9062V23.4141C91.0117 22.5625 91.125 21.7578 91.3516 21C91.5859 20.2344 91.9336 19.5586 92.3945 18.9727C92.8633 18.3867 93.4492 17.9258 94.1523 17.5898C94.8633 17.2539 95.6953 17.0859 96.6484 17.0859C97.6406 17.0859 98.5078 17.2891 99.25 17.6953C99.9922 18.0938 100.574 18.6406 100.996 19.3359C101.426 20.0234 101.66 20.8047 101.699 21.6797H99.6367C99.5977 21.1562 99.4492 20.6836 99.1914 20.2617C98.9414 19.8398 98.5977 19.5039 98.1602 19.2539C97.7305 18.9961 97.2266 18.8672 96.6484 18.8672C95.9844 18.8672 95.4258 19 94.9727 19.2656C94.5273 19.5234 94.1719 19.875 93.9062 20.3203C93.6484 20.7578 93.4609 21.2461 93.3438 21.7852C93.2344 22.3164 93.1797 22.8594 93.1797 23.4141V23.9062C93.1797 24.4609 93.2344 25.0078 93.3438 25.5469C93.4531 26.0859 93.6367 26.5742 93.8945 27.0117C94.1602 27.4492 94.5156 27.8008 94.9609 28.0664C95.4141 28.3242 95.9766 28.4531 96.6484 28.4531ZM109.398 30.2344C108.516 30.2344 107.715 30.0859 106.996 29.7891C106.285 29.4844 105.672 29.0586 105.156 28.5117C104.648 27.9648 104.258 27.3164 103.984 26.5664C103.711 25.8164 103.574 24.9961 103.574 24.1055V23.6133C103.574 22.582 103.727 21.6641 104.031 20.8594C104.336 20.0469 104.75 19.3594 105.273 18.7969C105.797 18.2344 106.391 17.8086 107.055 17.5195C107.719 17.2305 108.406 17.0859 109.117 17.0859C110.023 17.0859 110.805 17.2422 111.461 17.5547C112.125 17.8672 112.668 18.3047 113.09 18.8672C113.512 19.4219 113.824 20.0781 114.027 20.8359C114.23 21.5859 114.332 22.4062 114.332 23.2969V24.2695H104.863V22.5H112.164V22.3359C112.133 21.7734 112.016 21.2266 111.812 20.6953C111.617 20.1641 111.305 19.7266 110.875 19.3828C110.445 19.0391 109.859 18.8672 109.117 18.8672C108.625 18.8672 108.172 18.9727 107.758 19.1836C107.344 19.3867 106.988 19.6914 106.691 20.0977C106.395 20.5039 106.164 21 106 21.5859C105.836 22.1719 105.754 22.8477 105.754 23.6133V24.1055C105.754 24.707 105.836 25.2734 106 25.8047C106.172 26.3281 106.418 26.7891 106.738 27.1875C107.066 27.5859 107.461 27.8984 107.922 28.125C108.391 28.3516 108.922 28.4648 109.516 28.4648C110.281 28.4648 110.93 28.3086 111.461 27.9961C111.992 27.6836 112.457 27.2656 112.855 26.7422L114.168 27.7852C113.895 28.1992 113.547 28.5938 113.125 28.9688C112.703 29.3438 112.184 29.6484 111.566 29.8828C110.957 30.1172 110.234 30.2344 109.398 30.2344ZM116.852 12H119.031V27.5391L118.844 30H116.852V12ZM127.598 23.5547V23.8008C127.598 24.7227 127.488 25.5781 127.27 26.3672C127.051 27.1484 126.73 27.8281 126.309 28.4062C125.887 28.9844 125.371 29.4336 124.762 29.7539C124.152 30.0742 123.453 30.2344 122.664 30.2344C121.859 30.2344 121.152 30.0977 120.543 29.8242C119.941 29.543 119.434 29.1406 119.02 28.6172C118.605 28.0938 118.273 27.4609 118.023 26.7188C117.781 25.9766 117.613 25.1406 117.52 24.2109V23.1328C117.613 22.1953 117.781 21.3555 118.023 20.6133C118.273 19.8711 118.605 19.2383 119.02 18.7148C119.434 18.1836 119.941 17.7812 120.543 17.5078C121.145 17.2266 121.844 17.0859 122.641 17.0859C123.438 17.0859 124.145 17.2422 124.762 17.5547C125.379 17.8594 125.895 18.2969 126.309 18.8672C126.73 19.4375 127.051 20.1211 127.27 20.918C127.488 21.707 127.598 22.5859 127.598 23.5547ZM125.418 23.8008V23.5547C125.418 22.9219 125.359 22.3281 125.242 21.7734C125.125 21.2109 124.938 20.7188 124.68 20.2969C124.422 19.8672 124.082 19.5312 123.66 19.2891C123.238 19.0391 122.719 18.9141 122.102 18.9141C121.555 18.9141 121.078 19.0078 120.672 19.1953C120.273 19.3828 119.934 19.6367 119.652 19.957C119.371 20.2695 119.141 20.6289 118.961 21.0352C118.789 21.4336 118.66 21.8477 118.574 22.2773V25.1016C118.699 25.6484 118.902 26.1758 119.184 26.6836C119.473 27.1836 119.855 27.5938 120.332 27.9141C120.816 28.2344 121.414 28.3945 122.125 28.3945C122.711 28.3945 123.211 28.2773 123.625 28.043C124.047 27.8008 124.387 27.4688 124.645 27.0469C124.91 26.625 125.105 26.1367 125.23 25.582C125.355 25.0273 125.418 24.4336 125.418 23.8008ZM129.766 23.8008V23.5312C129.766 22.6172 129.898 21.7695 130.164 20.9883C130.43 20.1992 130.812 19.5156 131.312 18.9375C131.812 18.3516 132.418 17.8984 133.129 17.5781C133.84 17.25 134.637 17.0859 135.52 17.0859C136.41 17.0859 137.211 17.25 137.922 17.5781C138.641 17.8984 139.25 18.3516 139.75 18.9375C140.258 19.5156 140.645 20.1992 140.91 20.9883C141.176 21.7695 141.309 22.6172 141.309 23.5312V23.8008C141.309 24.7148 141.176 25.5625 140.91 26.3438C140.645 27.125 140.258 27.8086 139.75 28.3945C139.25 28.9727 138.645 29.4258 137.934 29.7539C137.23 30.0742 136.434 30.2344 135.543 30.2344C134.652 30.2344 133.852 30.0742 133.141 29.7539C132.43 29.4258 131.82 28.9727 131.312 28.3945C130.812 27.8086 130.43 27.125 130.164 26.3438C129.898 25.5625 129.766 24.7148 129.766 23.8008ZM131.934 23.5312V23.8008C131.934 24.4336 132.008 25.0312 132.156 25.5938C132.305 26.1484 132.527 26.6406 132.824 27.0703C133.129 27.5 133.508 27.8398 133.961 28.0898C134.414 28.332 134.941 28.4531 135.543 28.4531C136.137 28.4531 136.656 28.332 137.102 28.0898C137.555 27.8398 137.93 27.5 138.227 27.0703C138.523 26.6406 138.746 26.1484 138.895 25.5938C139.051 25.0312 139.129 24.4336 139.129 23.8008V23.5312C139.129 22.9062 139.051 22.3164 138.895 21.7617C138.746 21.1992 138.52 20.7031 138.215 20.2734C137.918 19.8359 137.543 19.4922 137.09 19.2422C136.645 18.9922 136.121 18.8672 135.52 18.8672C134.926 18.8672 134.402 18.9922 133.949 19.2422C133.504 19.4922 133.129 19.8359 132.824 20.2734C132.527 20.7031 132.305 21.1992 132.156 21.7617C132.008 22.3164 131.934 22.9062 131.934 23.5312ZM143.453 23.8008V23.5312C143.453 22.6172 143.586 21.7695 143.852 20.9883C144.117 20.1992 144.5 19.5156 145 18.9375C145.5 18.3516 146.105 17.8984 146.816 17.5781C147.527 17.25 148.324 17.0859 149.207 17.0859C150.098 17.0859 150.898 17.25 151.609 17.5781C152.328 17.8984 152.938 18.3516 153.438 18.9375C153.945 19.5156 154.332 20.1992 154.598 20.9883C154.863 21.7695 154.996 22.6172 154.996 23.5312V23.8008C154.996 24.7148 154.863 25.5625 154.598 26.3438C154.332 27.125 153.945 27.8086 153.438 28.3945C152.938 28.9727 152.332 29.4258 151.621 29.7539C150.918 30.0742 150.121 30.2344 149.23 30.2344C148.34 30.2344 147.539 30.0742 146.828 29.7539C146.117 29.4258 145.508 28.9727 145 28.3945C144.5 27.8086 144.117 27.125 143.852 26.3438C143.586 25.5625 143.453 24.7148 143.453 23.8008ZM145.621 23.5312V23.8008C145.621 24.4336 145.695 25.0312 145.844 25.5938C145.992 26.1484 146.215 26.6406 146.512 27.0703C146.816 27.5 147.195 27.8398 147.648 28.0898C148.102 28.332 148.629 28.4531 149.23 28.4531C149.824 28.4531 150.344 28.332 150.789 28.0898C151.242 27.8398 151.617 27.5 151.914 27.0703C152.211 26.6406 152.434 26.1484 152.582 25.5938C152.738 25.0312 152.816 24.4336 152.816 23.8008V23.5312C152.816 22.9062 152.738 22.3164 152.582 21.7617C152.434 21.1992 152.207 20.7031 151.902 20.2734C151.605 19.8359 151.23 19.4922 150.777 19.2422C150.332 18.9922 149.809 18.8672 149.207 18.8672C148.613 18.8672 148.09 18.9922 147.637 19.2422C147.191 19.4922 146.816 19.8359 146.512 20.2734C146.215 20.7031 145.992 21.1992 145.844 21.7617C145.695 22.3164 145.621 22.9062 145.621 23.5312ZM159.895 12V30H157.715V12H159.895ZM167.641 17.3203L162.109 23.2383L159.016 26.4492L158.84 24.1406L161.055 21.4922L164.992 17.3203H167.641ZM165.66 30L161.137 23.9531L162.262 22.0195L168.215 30H165.66Z" fill="black"/>
<defs>
<clipPath id="clip0_240_327">
<rect width="24" height="24" fill="white" transform="translate(16 10)"/>
</clipPath>
</defs>
</svg>
