<svg width="156" height="44" viewBox="0 0 156 44" fill="none" xmlns="http://www.w3.org/2000/svg">
<rect x="0.25" y="0.25" width="155.5" height="43.5" rx="4.75" stroke="#D6D6D6" stroke-width="0.5"/>
<path d="M37.8055 20.0415H37V20H28V24H33.6515C32.827 26.3285 30.6115 28 28 28C24.6865 28 22 25.3135 22 22C22 18.6865 24.6865 16 28 16C29.5295 16 30.921 16.577 31.9805 17.5195L34.809 14.691C33.023 13.0265 30.634 12 28 12C22.4775 12 18 16.4775 18 22C18 27.5225 22.4775 32 28 32C33.5225 32 38 27.5225 38 22C38 21.3295 37.931 20.675 37.8055 20.0415Z" fill="#FFC107"/>
<path d="M19.1531 17.3455L22.4386 19.755C23.3276 17.554 25.4806 16 28.0001 16C29.5296 16 30.9211 16.577 31.9806 17.5195L34.8091 14.691C33.0231 13.0265 30.6341 12 28.0001 12C24.1591 12 20.8281 14.1685 19.1531 17.3455Z" fill="#FF3D00"/>
<path d="M27.9999 32.0001C30.5829 32.0001 32.9299 31.0116 34.7044 29.4041L31.6094 26.7851C30.5719 27.5746 29.3037 28.0015 27.9999 28.0001C25.3989 28.0001 23.1904 26.3416 22.3584 24.0271L19.0974 26.5396C20.7524 29.7781 24.1134 32.0001 27.9999 32.0001Z" fill="#4CAF50"/>
<path d="M37.8055 20.0415H37V20H28V24H33.6515C33.2571 25.1082 32.5467 26.0766 31.608 26.7855L31.6095 26.7845L34.7045 29.4035C34.4855 29.6025 38 27 38 22C38 21.3295 37.931 20.675 37.8055 20.0415Z" fill="#1976D2"/>
<path d="M78.5898 21.5039V27.75C78.3789 28.0625 78.043 28.4141 77.582 28.8047C77.1211 29.1875 76.4844 29.5234 75.6719 29.8125C74.8672 30.0938 73.8281 30.2344 72.5547 30.2344C71.5156 30.2344 70.5586 30.0547 69.6836 29.6953C68.8164 29.3281 68.0625 28.7969 67.4219 28.1016C66.7891 27.3984 66.2969 26.5469 65.9453 25.5469C65.6016 24.5391 65.4297 23.3984 65.4297 22.125V20.8008C65.4297 19.5273 65.5781 18.3906 65.875 17.3906C66.1797 16.3906 66.625 15.543 67.2109 14.8477C67.7969 14.1445 68.5156 13.6133 69.3672 13.2539C70.2188 12.8867 71.1953 12.7031 72.2969 12.7031C73.6016 12.7031 74.6914 12.9297 75.5664 13.3828C76.4492 13.8281 77.1367 14.4453 77.6289 15.2344C78.1289 16.0234 78.4492 16.9219 78.5898 17.9297H76.3281C76.2266 17.3125 76.0234 16.75 75.7188 16.2422C75.4219 15.7344 74.9961 15.3281 74.4414 15.0234C73.8867 14.7109 73.1719 14.5547 72.2969 14.5547C71.5078 14.5547 70.8242 14.6992 70.2461 14.9883C69.668 15.2773 69.1914 15.6914 68.8164 16.2305C68.4414 16.7695 68.1602 17.4219 67.9727 18.1875C67.793 18.9531 67.7031 19.8164 67.7031 20.7773V22.125C67.7031 23.1094 67.8164 23.9883 68.043 24.7617C68.2773 25.5352 68.6094 26.1953 69.0391 26.7422C69.4688 27.2812 69.9805 27.6914 70.5742 27.9727C71.1758 28.2539 71.8398 28.3945 72.5664 28.3945C73.3711 28.3945 74.0234 28.3281 74.5234 28.1953C75.0234 28.0547 75.4141 27.8906 75.6953 27.7031C75.9766 27.5078 76.1914 27.3242 76.3398 27.1523V23.332H72.3906V21.5039H78.5898ZM81.4375 23.8008V23.5312C81.4375 22.6172 81.5703 21.7695 81.8359 20.9883C82.1016 20.1992 82.4844 19.5156 82.9844 18.9375C83.4844 18.3516 84.0898 17.8984 84.8008 17.5781C85.5117 17.25 86.3086 17.0859 87.1914 17.0859C88.082 17.0859 88.8828 17.25 89.5938 17.5781C90.3125 17.8984 90.9219 18.3516 91.4219 18.9375C91.9297 19.5156 92.3164 20.1992 92.582 20.9883C92.8477 21.7695 92.9805 22.6172 92.9805 23.5312V23.8008C92.9805 24.7148 92.8477 25.5625 92.582 26.3438C92.3164 27.125 91.9297 27.8086 91.4219 28.3945C90.9219 28.9727 90.3164 29.4258 89.6055 29.7539C88.9023 30.0742 88.1055 30.2344 87.2148 30.2344C86.3242 30.2344 85.5234 30.0742 84.8125 29.7539C84.1016 29.4258 83.4922 28.9727 82.9844 28.3945C82.4844 27.8086 82.1016 27.125 81.8359 26.3438C81.5703 25.5625 81.4375 24.7148 81.4375 23.8008ZM83.6055 23.5312V23.8008C83.6055 24.4336 83.6797 25.0312 83.8281 25.5938C83.9766 26.1484 84.1992 26.6406 84.4961 27.0703C84.8008 27.5 85.1797 27.8398 85.6328 28.0898C86.0859 28.332 86.6133 28.4531 87.2148 28.4531C87.8086 28.4531 88.3281 28.332 88.7734 28.0898C89.2266 27.8398 89.6016 27.5 89.8984 27.0703C90.1953 26.6406 90.418 26.1484 90.5664 25.5938C90.7227 25.0312 90.8008 24.4336 90.8008 23.8008V23.5312C90.8008 22.9062 90.7227 22.3164 90.5664 21.7617C90.418 21.1992 90.1914 20.7031 89.8867 20.2734C89.5898 19.8359 89.2148 19.4922 88.7617 19.2422C88.3164 18.9922 87.793 18.8672 87.1914 18.8672C86.5977 18.8672 86.0742 18.9922 85.6211 19.2422C85.1758 19.4922 84.8008 19.8359 84.4961 20.2734C84.1992 20.7031 83.9766 21.1992 83.8281 21.7617C83.6797 22.3164 83.6055 22.9062 83.6055 23.5312ZM95.125 23.8008V23.5312C95.125 22.6172 95.2578 21.7695 95.5234 20.9883C95.7891 20.1992 96.1719 19.5156 96.6719 18.9375C97.1719 18.3516 97.7773 17.8984 98.4883 17.5781C99.1992 17.25 99.9961 17.0859 100.879 17.0859C101.77 17.0859 102.57 17.25 103.281 17.5781C104 17.8984 104.609 18.3516 105.109 18.9375C105.617 19.5156 106.004 20.1992 106.27 20.9883C106.535 21.7695 106.668 22.6172 106.668 23.5312V23.8008C106.668 24.7148 106.535 25.5625 106.27 26.3438C106.004 27.125 105.617 27.8086 105.109 28.3945C104.609 28.9727 104.004 29.4258 103.293 29.7539C102.59 30.0742 101.793 30.2344 100.902 30.2344C100.012 30.2344 99.2109 30.0742 98.5 29.7539C97.7891 29.4258 97.1797 28.9727 96.6719 28.3945C96.1719 27.8086 95.7891 27.125 95.5234 26.3438C95.2578 25.5625 95.125 24.7148 95.125 23.8008ZM97.293 23.5312V23.8008C97.293 24.4336 97.3672 25.0312 97.5156 25.5938C97.6641 26.1484 97.8867 26.6406 98.1836 27.0703C98.4883 27.5 98.8672 27.8398 99.3203 28.0898C99.7734 28.332 100.301 28.4531 100.902 28.4531C101.496 28.4531 102.016 28.332 102.461 28.0898C102.914 27.8398 103.289 27.5 103.586 27.0703C103.883 26.6406 104.105 26.1484 104.254 25.5938C104.41 25.0312 104.488 24.4336 104.488 23.8008V23.5312C104.488 22.9062 104.41 22.3164 104.254 21.7617C104.105 21.1992 103.879 20.7031 103.574 20.2734C103.277 19.8359 102.902 19.4922 102.449 19.2422C102.004 18.9922 101.48 18.8672 100.879 18.8672C100.285 18.8672 99.7617 18.9922 99.3086 19.2422C98.8633 19.4922 98.4883 19.8359 98.1836 20.2734C97.8867 20.7031 97.6641 21.1992 97.5156 21.7617C97.3672 22.3164 97.293 22.9062 97.293 23.5312ZM117.602 17.3203H119.57V29.7305C119.57 30.8477 119.344 31.8008 118.891 32.5898C118.438 33.3789 117.805 33.9766 116.992 34.3828C116.188 34.7969 115.258 35.0039 114.203 35.0039C113.766 35.0039 113.25 34.9336 112.656 34.793C112.07 34.6602 111.492 34.4297 110.922 34.1016C110.359 33.7812 109.887 33.3477 109.504 32.8008L110.641 31.5117C111.172 32.1523 111.727 32.5977 112.305 32.8477C112.891 33.0977 113.469 33.2227 114.039 33.2227C114.727 33.2227 115.32 33.0938 115.82 32.8359C116.32 32.5781 116.707 32.1953 116.98 31.6875C117.262 31.1875 117.402 30.5703 117.402 29.8359V20.1094L117.602 17.3203ZM108.871 23.8008V23.5547C108.871 22.5859 108.984 21.707 109.211 20.918C109.445 20.1211 109.777 19.4375 110.207 18.8672C110.645 18.2969 111.172 17.8594 111.789 17.5547C112.406 17.2422 113.102 17.0859 113.875 17.0859C114.672 17.0859 115.367 17.2266 115.961 17.5078C116.562 17.7812 117.07 18.1836 117.484 18.7148C117.906 19.2383 118.238 19.8711 118.48 20.6133C118.723 21.3555 118.891 22.1953 118.984 23.1328V24.2109C118.898 25.1406 118.73 25.9766 118.48 26.7188C118.238 27.4609 117.906 28.0938 117.484 28.6172C117.07 29.1406 116.562 29.543 115.961 29.8242C115.359 30.0977 114.656 30.2344 113.852 30.2344C113.094 30.2344 112.406 30.0742 111.789 29.7539C111.18 29.4336 110.656 28.9844 110.219 28.4062C109.781 27.8281 109.445 27.1484 109.211 26.3672C108.984 25.5781 108.871 24.7227 108.871 23.8008ZM111.039 23.5547V23.8008C111.039 24.4336 111.102 25.0273 111.227 25.582C111.359 26.1367 111.559 26.625 111.824 27.0469C112.098 27.4688 112.445 27.8008 112.867 28.043C113.289 28.2773 113.793 28.3945 114.379 28.3945C115.098 28.3945 115.691 28.2422 116.16 27.9375C116.629 27.6328 117 27.2305 117.273 26.7305C117.555 26.2305 117.773 25.6875 117.93 25.1016V22.2773C117.844 21.8477 117.711 21.4336 117.531 21.0352C117.359 20.6289 117.133 20.2695 116.852 19.957C116.578 19.6367 116.238 19.3828 115.832 19.1953C115.426 19.0078 114.949 18.9141 114.402 18.9141C113.809 18.9141 113.297 19.0391 112.867 19.2891C112.445 19.5312 112.098 19.8672 111.824 20.2969C111.559 20.7188 111.359 21.2109 111.227 21.7734C111.102 22.3281 111.039 22.9219 111.039 23.5547ZM125.219 12V30H123.039V12H125.219ZM133.961 30.2344C133.078 30.2344 132.277 30.0859 131.559 29.7891C130.848 29.4844 130.234 29.0586 129.719 28.5117C129.211 27.9648 128.82 27.3164 128.547 26.5664C128.273 25.8164 128.137 24.9961 128.137 24.1055V23.6133C128.137 22.582 128.289 21.6641 128.594 20.8594C128.898 20.0469 129.312 19.3594 129.836 18.7969C130.359 18.2344 130.953 17.8086 131.617 17.5195C132.281 17.2305 132.969 17.0859 133.68 17.0859C134.586 17.0859 135.367 17.2422 136.023 17.5547C136.688 17.8672 137.23 18.3047 137.652 18.8672C138.074 19.4219 138.387 20.0781 138.59 20.8359C138.793 21.5859 138.895 22.4062 138.895 23.2969V24.2695H129.426V22.5H136.727V22.3359C136.695 21.7734 136.578 21.2266 136.375 20.6953C136.18 20.1641 135.867 19.7266 135.438 19.3828C135.008 19.0391 134.422 18.8672 133.68 18.8672C133.188 18.8672 132.734 18.9727 132.32 19.1836C131.906 19.3867 131.551 19.6914 131.254 20.0977C130.957 20.5039 130.727 21 130.562 21.5859C130.398 22.1719 130.316 22.8477 130.316 23.6133V24.1055C130.316 24.707 130.398 25.2734 130.562 25.8047C130.734 26.3281 130.98 26.7891 131.301 27.1875C131.629 27.5859 132.023 27.8984 132.484 28.125C132.953 28.3516 133.484 28.4648 134.078 28.4648C134.844 28.4648 135.492 28.3086 136.023 27.9961C136.555 27.6836 137.02 27.2656 137.418 26.7422L138.73 27.7852C138.457 28.1992 138.109 28.5938 137.688 28.9688C137.266 29.3438 136.746 29.6484 136.129 29.8828C135.52 30.1172 134.797 30.2344 133.961 30.2344Z" fill="black"/>
</svg>
