<svg width="162" height="56" viewBox="0 0 162 56" fill="none" xmlns="http://www.w3.org/2000/svg">
<rect width="162" height="56" rx="6" fill="black"/>
<path d="M47.874 22.2791C47.6775 22.3794 43.001 24.4956 43.001 29.1877C43.2215 34.5387 48.9026 36.4153 49 36.4153C48.9026 36.5156 48.1423 38.9716 45.8903 41.5462C44.1031 43.764 42.1194 46 39.1072 46C36.2418 46 35.2133 44.5219 31.9071 44.5219C28.3566 44.5219 27.352 46 24.6337 46C21.6214 46 19.4908 43.6442 17.6061 41.4473C15.1577 38.5718 13.0766 34.0595 13.0031 29.7268C12.9536 27.4309 13.4934 25.1741 14.8638 23.2571C16.798 20.581 20.251 18.7643 24.0219 18.7044C26.9112 18.6249 29.4826 20.3218 31.2459 20.3218C32.9357 20.3218 36.0949 18.7044 39.6694 18.7044C41.2122 18.7057 45.3265 19.0846 47.874 22.2791ZM31.0016 18.246C30.4873 16.1493 31.9071 14.0527 33.2296 12.7152C34.9194 11.0978 37.5883 10 39.8898 10C40.0367 12.0967 39.1056 14.1529 37.4413 15.6506C35.948 17.268 33.3765 18.4856 31.0016 18.246Z" fill="white"/>
<path d="M66.1992 17H65.0117L65.0195 16.3867H66.1992C66.6055 16.3867 66.944 16.3021 67.2148 16.1328C67.4857 15.9609 67.6888 15.7214 67.8242 15.4141C67.9622 15.1042 68.0312 14.7422 68.0312 14.3281V13.9805C68.0312 13.6549 67.9922 13.3659 67.9141 13.1133C67.8359 12.8581 67.7214 12.6432 67.5703 12.4688C67.4193 12.2917 67.2344 12.1576 67.0156 12.0664C66.7995 11.9753 66.5508 11.9297 66.2695 11.9297H64.9883V11.3125H66.2695C66.6419 11.3125 66.9818 11.375 67.2891 11.5C67.5964 11.6224 67.8607 11.8008 68.082 12.0352C68.306 12.2669 68.4779 12.5482 68.5977 12.8789C68.7174 13.207 68.7773 13.5768 68.7773 13.9883V14.3281C68.7773 14.7396 68.7174 15.1107 68.5977 15.4414C68.4779 15.7695 68.3047 16.0495 68.0781 16.2812C67.8542 16.513 67.5833 16.6914 67.2656 16.8164C66.9505 16.9388 66.5951 17 66.1992 17ZM65.4141 11.3125V17H64.6602V11.3125H65.4141ZM69.6094 14.9336V14.8438C69.6094 14.5391 69.6536 14.2565 69.7422 13.9961C69.8307 13.7331 69.9583 13.5052 70.125 13.3125C70.2917 13.1172 70.4935 12.9661 70.7305 12.8594C70.9674 12.75 71.2331 12.6953 71.5273 12.6953C71.8242 12.6953 72.0911 12.75 72.3281 12.8594C72.5677 12.9661 72.7708 13.1172 72.9375 13.3125C73.1068 13.5052 73.2357 13.7331 73.3242 13.9961C73.4128 14.2565 73.457 14.5391 73.457 14.8438V14.9336C73.457 15.2383 73.4128 15.5208 73.3242 15.7812C73.2357 16.0417 73.1068 16.2695 72.9375 16.4648C72.7708 16.6576 72.569 16.8086 72.332 16.918C72.0977 17.0247 71.832 17.0781 71.5352 17.0781C71.2383 17.0781 70.9714 17.0247 70.7344 16.918C70.4974 16.8086 70.2943 16.6576 70.125 16.4648C69.9583 16.2695 69.8307 16.0417 69.7422 15.7812C69.6536 15.5208 69.6094 15.2383 69.6094 14.9336ZM70.332 14.8438V14.9336C70.332 15.1445 70.3568 15.3438 70.4062 15.5312C70.4557 15.7161 70.5299 15.8802 70.6289 16.0234C70.7305 16.1667 70.8568 16.2799 71.0078 16.3633C71.1589 16.444 71.3346 16.4844 71.5352 16.4844C71.7331 16.4844 71.9062 16.444 72.0547 16.3633C72.2057 16.2799 72.3307 16.1667 72.4297 16.0234C72.5286 15.8802 72.6029 15.7161 72.6523 15.5312C72.7044 15.3438 72.7305 15.1445 72.7305 14.9336V14.8438C72.7305 14.6354 72.7044 14.4388 72.6523 14.2539C72.6029 14.0664 72.5273 13.901 72.4258 13.7578C72.3268 13.612 72.2018 13.4974 72.0508 13.4141C71.9023 13.3307 71.7279 13.2891 71.5273 13.2891C71.3294 13.2891 71.1549 13.3307 71.0039 13.4141C70.8555 13.4974 70.7305 13.612 70.6289 13.7578C70.5299 13.901 70.4557 14.0664 70.4062 14.2539C70.3568 14.4388 70.332 14.6354 70.332 14.8438ZM75.4336 16.25L76.5195 12.7734H76.9961L76.9023 13.4648L75.7969 17H75.332L75.4336 16.25ZM74.7031 12.7734L75.6289 16.2891L75.6953 17H75.207L73.9805 12.7734H74.7031ZM78.0352 16.2617L78.918 12.7734H79.6367L78.4102 17H77.9258L78.0352 16.2617ZM77.1016 12.7734L78.1641 16.1914L78.2852 17H77.8242L76.6875 13.457L76.5938 12.7734H77.1016ZM81.1016 13.6758V17H80.3789V12.7734H81.0625L81.1016 13.6758ZM80.9297 14.7266L80.6289 14.7148C80.6315 14.4258 80.6745 14.1589 80.7578 13.9141C80.8411 13.6667 80.9583 13.4518 81.1094 13.2695C81.2604 13.0872 81.4401 12.9466 81.6484 12.8477C81.8594 12.7461 82.0924 12.6953 82.3477 12.6953C82.556 12.6953 82.7435 12.724 82.9102 12.7812C83.0768 12.8359 83.2188 12.9245 83.3359 13.0469C83.4557 13.1693 83.5469 13.3281 83.6094 13.5234C83.6719 13.7161 83.7031 13.9518 83.7031 14.2305V17H82.9766V14.2227C82.9766 14.0013 82.944 13.8242 82.8789 13.6914C82.8138 13.556 82.7188 13.4583 82.5938 13.3984C82.4688 13.3359 82.3151 13.3047 82.1328 13.3047C81.9531 13.3047 81.7891 13.3424 81.6406 13.418C81.4948 13.4935 81.3685 13.5977 81.2617 13.7305C81.1576 13.8633 81.0755 14.0156 81.0156 14.1875C80.9583 14.3568 80.9297 14.5365 80.9297 14.7266ZM85.5859 11V17H84.8594V11H85.5859ZM86.5547 14.9336V14.8438C86.5547 14.5391 86.599 14.2565 86.6875 13.9961C86.776 13.7331 86.9036 13.5052 87.0703 13.3125C87.237 13.1172 87.4388 12.9661 87.6758 12.8594C87.9128 12.75 88.1784 12.6953 88.4727 12.6953C88.7695 12.6953 89.0365 12.75 89.2734 12.8594C89.513 12.9661 89.7161 13.1172 89.8828 13.3125C90.0521 13.5052 90.181 13.7331 90.2695 13.9961C90.3581 14.2565 90.4023 14.5391 90.4023 14.8438V14.9336C90.4023 15.2383 90.3581 15.5208 90.2695 15.7812C90.181 16.0417 90.0521 16.2695 89.8828 16.4648C89.7161 16.6576 89.5143 16.8086 89.2773 16.918C89.043 17.0247 88.7773 17.0781 88.4805 17.0781C88.1836 17.0781 87.9167 17.0247 87.6797 16.918C87.4427 16.8086 87.2396 16.6576 87.0703 16.4648C86.9036 16.2695 86.776 16.0417 86.6875 15.7812C86.599 15.5208 86.5547 15.2383 86.5547 14.9336ZM87.2773 14.8438V14.9336C87.2773 15.1445 87.3021 15.3438 87.3516 15.5312C87.401 15.7161 87.4753 15.8802 87.5742 16.0234C87.6758 16.1667 87.8021 16.2799 87.9531 16.3633C88.1042 16.444 88.2799 16.4844 88.4805 16.4844C88.6784 16.4844 88.8516 16.444 89 16.3633C89.151 16.2799 89.276 16.1667 89.375 16.0234C89.474 15.8802 89.5482 15.7161 89.5977 15.5312C89.6497 15.3438 89.6758 15.1445 89.6758 14.9336V14.8438C89.6758 14.6354 89.6497 14.4388 89.5977 14.2539C89.5482 14.0664 89.4727 13.901 89.3711 13.7578C89.2721 13.612 89.1471 13.4974 88.9961 13.4141C88.8477 13.3307 88.6732 13.2891 88.4727 13.2891C88.2747 13.2891 88.1003 13.3307 87.9492 13.4141C87.8008 13.4974 87.6758 13.612 87.5742 13.7578C87.4753 13.901 87.401 14.0664 87.3516 14.2539C87.3021 14.4388 87.2773 14.6354 87.2773 14.8438ZM93.8008 16.2773V14.1016C93.8008 13.9349 93.7669 13.7904 93.6992 13.668C93.6341 13.543 93.5352 13.4466 93.4023 13.3789C93.2695 13.3112 93.1055 13.2773 92.9102 13.2773C92.7279 13.2773 92.5677 13.3086 92.4297 13.3711C92.2943 13.4336 92.1875 13.5156 92.1094 13.6172C92.0339 13.7188 91.9961 13.8281 91.9961 13.9453H91.2734C91.2734 13.7943 91.3125 13.6445 91.3906 13.4961C91.4688 13.3477 91.5807 13.2135 91.7266 13.0938C91.875 12.9714 92.0521 12.875 92.2578 12.8047C92.4661 12.7318 92.6979 12.6953 92.9531 12.6953C93.2604 12.6953 93.5312 12.7474 93.7656 12.8516C94.0026 12.9557 94.1875 13.1133 94.3203 13.3242C94.4557 13.5326 94.5234 13.7943 94.5234 14.1094V16.0781C94.5234 16.2188 94.5352 16.3685 94.5586 16.5273C94.5846 16.6862 94.6224 16.8229 94.6719 16.9375V17H93.918C93.8815 16.9167 93.8529 16.806 93.832 16.668C93.8112 16.5273 93.8008 16.3971 93.8008 16.2773ZM93.9258 14.4375L93.9336 14.9453H93.2031C92.9974 14.9453 92.8138 14.9622 92.6523 14.9961C92.4909 15.0273 92.3555 15.0755 92.2461 15.1406C92.1367 15.2057 92.0534 15.2878 91.9961 15.3867C91.9388 15.4831 91.9102 15.5964 91.9102 15.7266C91.9102 15.8594 91.9401 15.9805 92 16.0898C92.0599 16.1992 92.1497 16.2865 92.2695 16.3516C92.3919 16.4141 92.5417 16.4453 92.7188 16.4453C92.9401 16.4453 93.1354 16.3984 93.3047 16.3047C93.474 16.2109 93.6081 16.0964 93.707 15.9609C93.8086 15.8255 93.8633 15.694 93.8711 15.5664L94.1797 15.9141C94.1615 16.0234 94.112 16.1445 94.0312 16.2773C93.9505 16.4102 93.8424 16.5378 93.707 16.6602C93.5742 16.7799 93.4154 16.8802 93.2305 16.9609C93.0482 17.0391 92.8424 17.0781 92.6133 17.0781C92.3268 17.0781 92.0755 17.0221 91.8594 16.9102C91.6458 16.7982 91.4792 16.6484 91.3594 16.4609C91.2422 16.2708 91.1836 16.0586 91.1836 15.8242C91.1836 15.5977 91.2279 15.3984 91.3164 15.2266C91.4049 15.0521 91.5326 14.9076 91.6992 14.793C91.8659 14.6758 92.0664 14.5872 92.3008 14.5273C92.5352 14.4674 92.7969 14.4375 93.0859 14.4375H93.9258ZM98.3242 16.1797V11H99.0508V17H98.3867L98.3242 16.1797ZM95.4805 14.9336V14.8516C95.4805 14.5286 95.5195 14.2357 95.5977 13.9727C95.6784 13.707 95.7917 13.4792 95.9375 13.2891C96.0859 13.099 96.2617 12.9531 96.4648 12.8516C96.6706 12.7474 96.8997 12.6953 97.1523 12.6953C97.418 12.6953 97.6497 12.7422 97.8477 12.8359C98.0482 12.9271 98.2174 13.0612 98.3555 13.2383C98.4961 13.4128 98.6068 13.6237 98.6875 13.8711C98.7682 14.1185 98.8242 14.3984 98.8555 14.7109V15.0703C98.8268 15.3802 98.7708 15.6589 98.6875 15.9062C98.6068 16.1536 98.4961 16.3646 98.3555 16.5391C98.2174 16.7135 98.0482 16.8477 97.8477 16.9414C97.6471 17.0326 97.4128 17.0781 97.1445 17.0781C96.8971 17.0781 96.6706 17.0247 96.4648 16.918C96.2617 16.8112 96.0859 16.6615 95.9375 16.4688C95.7917 16.276 95.6784 16.0495 95.5977 15.7891C95.5195 15.526 95.4805 15.2409 95.4805 14.9336ZM96.207 14.8516V14.9336C96.207 15.1445 96.2279 15.3424 96.2695 15.5273C96.3138 15.7122 96.3815 15.875 96.4727 16.0156C96.5638 16.1562 96.6797 16.2669 96.8203 16.3477C96.9609 16.4258 97.1289 16.4648 97.3242 16.4648C97.5638 16.4648 97.7604 16.4141 97.9141 16.3125C98.0703 16.2109 98.1953 16.0768 98.2891 15.9102C98.3828 15.7435 98.4557 15.5625 98.5078 15.3672V14.4258C98.4766 14.2826 98.431 14.1445 98.3711 14.0117C98.3138 13.8763 98.2383 13.7565 98.1445 13.6523C98.0534 13.5456 97.9401 13.4609 97.8047 13.3984C97.6719 13.3359 97.5143 13.3047 97.332 13.3047C97.1341 13.3047 96.9635 13.3464 96.8203 13.4297C96.6797 13.5104 96.5638 13.6224 96.4727 13.7656C96.3815 13.9062 96.3138 14.0703 96.2695 14.2578C96.2279 14.4427 96.207 14.6406 96.207 14.8516ZM101.969 14.9336V14.8438C101.969 14.5391 102.013 14.2565 102.102 13.9961C102.19 13.7331 102.318 13.5052 102.484 13.3125C102.651 13.1172 102.853 12.9661 103.09 12.8594C103.327 12.75 103.592 12.6953 103.887 12.6953C104.184 12.6953 104.451 12.75 104.688 12.8594C104.927 12.9661 105.13 13.1172 105.297 13.3125C105.466 13.5052 105.595 13.7331 105.684 13.9961C105.772 14.2565 105.816 14.5391 105.816 14.8438V14.9336C105.816 15.2383 105.772 15.5208 105.684 15.7812C105.595 16.0417 105.466 16.2695 105.297 16.4648C105.13 16.6576 104.928 16.8086 104.691 16.918C104.457 17.0247 104.191 17.0781 103.895 17.0781C103.598 17.0781 103.331 17.0247 103.094 16.918C102.857 16.8086 102.654 16.6576 102.484 16.4648C102.318 16.2695 102.19 16.0417 102.102 15.7812C102.013 15.5208 101.969 15.2383 101.969 14.9336ZM102.691 14.8438V14.9336C102.691 15.1445 102.716 15.3438 102.766 15.5312C102.815 15.7161 102.889 15.8802 102.988 16.0234C103.09 16.1667 103.216 16.2799 103.367 16.3633C103.518 16.444 103.694 16.4844 103.895 16.4844C104.092 16.4844 104.266 16.444 104.414 16.3633C104.565 16.2799 104.69 16.1667 104.789 16.0234C104.888 15.8802 104.962 15.7161 105.012 15.5312C105.064 15.3438 105.09 15.1445 105.09 14.9336V14.8438C105.09 14.6354 105.064 14.4388 105.012 14.2539C104.962 14.0664 104.887 13.901 104.785 13.7578C104.686 13.612 104.561 13.4974 104.41 13.4141C104.262 13.3307 104.087 13.2891 103.887 13.2891C103.689 13.2891 103.514 13.3307 103.363 13.4141C103.215 13.4974 103.09 13.612 102.988 13.7578C102.889 13.901 102.815 14.0664 102.766 14.2539C102.716 14.4388 102.691 14.6354 102.691 14.8438ZM107.445 13.6758V17H106.723V12.7734H107.406L107.445 13.6758ZM107.273 14.7266L106.973 14.7148C106.975 14.4258 107.018 14.1589 107.102 13.9141C107.185 13.6667 107.302 13.4518 107.453 13.2695C107.604 13.0872 107.784 12.9466 107.992 12.8477C108.203 12.7461 108.436 12.6953 108.691 12.6953C108.9 12.6953 109.087 12.724 109.254 12.7812C109.421 12.8359 109.562 12.9245 109.68 13.0469C109.799 13.1693 109.891 13.3281 109.953 13.5234C110.016 13.7161 110.047 13.9518 110.047 14.2305V17H109.32V14.2227C109.32 14.0013 109.288 13.8242 109.223 13.6914C109.158 13.556 109.062 13.4583 108.938 13.3984C108.812 13.3359 108.659 13.3047 108.477 13.3047C108.297 13.3047 108.133 13.3424 107.984 13.418C107.839 13.4935 107.712 13.5977 107.605 13.7305C107.501 13.8633 107.419 14.0156 107.359 14.1875C107.302 14.3568 107.273 14.5365 107.273 14.7266ZM114.898 12.7734V13.3281H112.613V12.7734H114.898ZM113.387 11.7461H114.109V15.9531C114.109 16.0964 114.132 16.2044 114.176 16.2773C114.22 16.3503 114.277 16.3984 114.348 16.4219C114.418 16.4453 114.493 16.457 114.574 16.457C114.634 16.457 114.697 16.4518 114.762 16.4414C114.829 16.4284 114.88 16.418 114.914 16.4102L114.918 17C114.861 17.0182 114.785 17.0352 114.691 17.0508C114.6 17.069 114.49 17.0781 114.359 17.0781C114.182 17.0781 114.02 17.043 113.871 16.9727C113.723 16.9023 113.604 16.7852 113.516 16.6211C113.43 16.4544 113.387 16.2305 113.387 15.9492V11.7461ZM116.469 11V17H115.746V11H116.469ZM116.297 14.7266L115.996 14.7148C115.999 14.4258 116.042 14.1589 116.125 13.9141C116.208 13.6667 116.326 13.4518 116.477 13.2695C116.628 13.0872 116.807 12.9466 117.016 12.8477C117.227 12.7461 117.46 12.6953 117.715 12.6953C117.923 12.6953 118.111 12.724 118.277 12.7812C118.444 12.8359 118.586 12.9245 118.703 13.0469C118.823 13.1693 118.914 13.3281 118.977 13.5234C119.039 13.7161 119.07 13.9518 119.07 14.2305V17H118.344V14.2227C118.344 14.0013 118.311 13.8242 118.246 13.6914C118.181 13.556 118.086 13.4583 117.961 13.3984C117.836 13.3359 117.682 13.3047 117.5 13.3047C117.32 13.3047 117.156 13.3424 117.008 13.418C116.862 13.4935 116.736 13.5977 116.629 13.7305C116.525 13.8633 116.443 14.0156 116.383 14.1875C116.326 14.3568 116.297 14.5365 116.297 14.7266ZM121.906 17.0781C121.612 17.0781 121.345 17.0286 121.105 16.9297C120.868 16.8281 120.664 16.6862 120.492 16.5039C120.323 16.3216 120.193 16.1055 120.102 15.8555C120.01 15.6055 119.965 15.332 119.965 15.0352V14.8711C119.965 14.5273 120.016 14.2214 120.117 13.9531C120.219 13.6823 120.357 13.4531 120.531 13.2656C120.706 13.0781 120.904 12.9362 121.125 12.8398C121.346 12.7435 121.576 12.6953 121.812 12.6953C122.115 12.6953 122.375 12.7474 122.594 12.8516C122.815 12.9557 122.996 13.1016 123.137 13.2891C123.277 13.474 123.382 13.6927 123.449 13.9453C123.517 14.1953 123.551 14.4688 123.551 14.7656V15.0898H120.395V14.5H122.828V14.4453C122.818 14.2578 122.779 14.0755 122.711 13.8984C122.646 13.7214 122.542 13.5755 122.398 13.4609C122.255 13.3464 122.06 13.2891 121.812 13.2891C121.648 13.2891 121.497 13.3242 121.359 13.3945C121.221 13.4622 121.103 13.5638 121.004 13.6992C120.905 13.8346 120.828 14 120.773 14.1953C120.719 14.3906 120.691 14.6159 120.691 14.8711V15.0352C120.691 15.2357 120.719 15.4245 120.773 15.6016C120.831 15.776 120.913 15.9297 121.02 16.0625C121.129 16.1953 121.26 16.2995 121.414 16.375C121.57 16.4505 121.747 16.4883 121.945 16.4883C122.201 16.4883 122.417 16.4362 122.594 16.332C122.771 16.2279 122.926 16.0885 123.059 15.9141L123.496 16.2617C123.405 16.3997 123.289 16.5312 123.148 16.6562C123.008 16.7812 122.835 16.8828 122.629 16.9609C122.426 17.0391 122.185 17.0781 121.906 17.0781Z" fill="white"/>
<path d="M69.5859 31.1406L66.1875 41H64.1328L68.4141 29.625H69.7266L69.5859 31.1406ZM72.4297 41L69.0234 31.1406L68.875 29.625H70.1953L74.4922 41H72.4297ZM72.2656 36.7812V38.3359H66.0781V36.7812H72.2656ZM80.0859 36.7578H77.125V35.2031H80.0859C80.6016 35.2031 81.0182 35.1198 81.3359 34.9531C81.6536 34.7865 81.8854 34.5573 82.0312 34.2656C82.1823 33.9688 82.2578 33.6302 82.2578 33.25C82.2578 32.8906 82.1823 32.5547 82.0312 32.2422C81.8854 31.9245 81.6536 31.6693 81.3359 31.4766C81.0182 31.2839 80.6016 31.1875 80.0859 31.1875H77.7266V41H75.7656V29.625H80.0859C80.9661 29.625 81.7135 29.7812 82.3281 30.0938C82.9479 30.401 83.4193 30.8281 83.7422 31.375C84.0651 31.9167 84.2266 32.5365 84.2266 33.2344C84.2266 33.9688 84.0651 34.599 83.7422 35.125C83.4193 35.651 82.9479 36.0547 82.3281 36.3359C81.7135 36.6172 80.9661 36.7578 80.0859 36.7578ZM90.3047 36.7578H87.3438V35.2031H90.3047C90.8203 35.2031 91.237 35.1198 91.5547 34.9531C91.8724 34.7865 92.1042 34.5573 92.25 34.2656C92.401 33.9688 92.4766 33.6302 92.4766 33.25C92.4766 32.8906 92.401 32.5547 92.25 32.2422C92.1042 31.9245 91.8724 31.6693 91.5547 31.4766C91.237 31.2839 90.8203 31.1875 90.3047 31.1875H87.9453V41H85.9844V29.625H90.3047C91.1849 29.625 91.9323 29.7812 92.5469 30.0938C93.1667 30.401 93.638 30.8281 93.9609 31.375C94.2839 31.9167 94.4453 32.5365 94.4453 33.2344C94.4453 33.9688 94.2839 34.599 93.9609 35.125C93.638 35.651 93.1667 36.0547 92.5469 36.3359C91.9323 36.6172 91.1849 36.7578 90.3047 36.7578ZM106.172 38.0703C106.172 37.8359 106.135 37.6276 106.062 37.4453C105.995 37.263 105.872 37.0964 105.695 36.9453C105.518 36.7943 105.268 36.6484 104.945 36.5078C104.628 36.362 104.221 36.2135 103.727 36.0625C103.185 35.8958 102.685 35.7109 102.227 35.5078C101.773 35.2995 101.378 35.0599 101.039 34.7891C100.701 34.513 100.438 34.1979 100.25 33.8438C100.062 33.4844 99.9688 33.0703 99.9688 32.6016C99.9688 32.138 100.065 31.7161 100.258 31.3359C100.456 30.9557 100.734 30.6276 101.094 30.3516C101.458 30.0703 101.888 29.8542 102.383 29.7031C102.878 29.5469 103.424 29.4688 104.023 29.4688C104.867 29.4688 105.594 29.625 106.203 29.9375C106.818 30.25 107.289 30.6693 107.617 31.1953C107.951 31.7214 108.117 32.3021 108.117 32.9375H106.172C106.172 32.5625 106.091 32.2318 105.93 31.9453C105.773 31.6536 105.534 31.4245 105.211 31.2578C104.893 31.0911 104.49 31.0078 104 31.0078C103.536 31.0078 103.151 31.0781 102.844 31.2188C102.536 31.3594 102.307 31.5495 102.156 31.7891C102.005 32.0286 101.93 32.2995 101.93 32.6016C101.93 32.8151 101.979 33.0104 102.078 33.1875C102.177 33.3594 102.328 33.5208 102.531 33.6719C102.734 33.8177 102.99 33.9557 103.297 34.0859C103.604 34.2161 103.966 34.3411 104.383 34.4609C105.013 34.6484 105.562 34.8568 106.031 35.0859C106.5 35.3099 106.891 35.5651 107.203 35.8516C107.516 36.138 107.75 36.4635 107.906 36.8281C108.062 37.1875 108.141 37.5964 108.141 38.0547C108.141 38.5339 108.044 38.9661 107.852 39.3516C107.659 39.7318 107.383 40.0573 107.023 40.3281C106.669 40.5938 106.242 40.7995 105.742 40.9453C105.247 41.0859 104.695 41.1562 104.086 41.1562C103.539 41.1562 103 41.0833 102.469 40.9375C101.943 40.7917 101.464 40.5703 101.031 40.2734C100.599 39.9714 100.255 39.5964 100 39.1484C99.7448 38.6953 99.6172 38.1667 99.6172 37.5625H101.578C101.578 37.9323 101.641 38.2474 101.766 38.5078C101.896 38.7682 102.076 38.9818 102.305 39.1484C102.534 39.3099 102.799 39.4297 103.102 39.5078C103.409 39.5859 103.737 39.625 104.086 39.625C104.544 39.625 104.927 39.5599 105.234 39.4297C105.547 39.2995 105.781 39.1172 105.938 38.8828C106.094 38.6484 106.172 38.3776 106.172 38.0703ZM114.555 29.625V41H112.609V29.625H114.555ZM118.125 29.625V31.1875H109.07V29.625H118.125ZM128.477 35V35.625C128.477 36.4844 128.365 37.2552 128.141 37.9375C127.917 38.6198 127.596 39.2005 127.18 39.6797C126.768 40.1589 126.273 40.526 125.695 40.7812C125.117 41.0312 124.477 41.1562 123.773 41.1562C123.076 41.1562 122.438 41.0312 121.859 40.7812C121.286 40.526 120.789 40.1589 120.367 39.6797C119.945 39.2005 119.617 38.6198 119.383 37.9375C119.154 37.2552 119.039 36.4844 119.039 35.625V35C119.039 34.1406 119.154 33.3724 119.383 32.6953C119.612 32.013 119.935 31.4323 120.352 30.9531C120.773 30.4688 121.271 30.1016 121.844 29.8516C122.422 29.5964 123.06 29.4688 123.758 29.4688C124.461 29.4688 125.102 29.5964 125.68 29.8516C126.258 30.1016 126.755 30.4688 127.172 30.9531C127.589 31.4323 127.909 32.013 128.133 32.6953C128.362 33.3724 128.477 34.1406 128.477 35ZM126.516 35.625V34.9844C126.516 34.349 126.453 33.7891 126.328 33.3047C126.208 32.8151 126.029 32.4062 125.789 32.0781C125.555 31.7448 125.266 31.4948 124.922 31.3281C124.578 31.1562 124.19 31.0703 123.758 31.0703C123.326 31.0703 122.94 31.1562 122.602 31.3281C122.263 31.4948 121.974 31.7448 121.734 32.0781C121.5 32.4062 121.32 32.8151 121.195 33.3047C121.07 33.7891 121.008 34.349 121.008 34.9844V35.625C121.008 36.2604 121.07 36.8229 121.195 37.3125C121.32 37.8021 121.503 38.2161 121.742 38.5547C121.987 38.888 122.279 39.1406 122.617 39.3125C122.956 39.4792 123.341 39.5625 123.773 39.5625C124.211 39.5625 124.599 39.4792 124.938 39.3125C125.276 39.1406 125.562 38.888 125.797 38.5547C126.031 38.2161 126.208 37.8021 126.328 37.3125C126.453 36.8229 126.516 36.2604 126.516 35.625ZM130.438 29.625H134.461C135.326 29.625 136.062 29.7552 136.672 30.0156C137.281 30.276 137.747 30.6615 138.07 31.1719C138.398 31.6771 138.562 32.3021 138.562 33.0469C138.562 33.6146 138.458 34.1146 138.25 34.5469C138.042 34.9792 137.747 35.3438 137.367 35.6406C136.987 35.9323 136.534 36.1589 136.008 36.3203L135.414 36.6094H131.797L131.781 35.0547H134.492C134.961 35.0547 135.352 34.9714 135.664 34.8047C135.977 34.638 136.211 34.4115 136.367 34.125C136.529 33.8333 136.609 33.5052 136.609 33.1406C136.609 32.7448 136.531 32.401 136.375 32.1094C136.224 31.8125 135.99 31.5859 135.672 31.4297C135.354 31.2682 134.951 31.1875 134.461 31.1875H132.398V41H130.438V29.625ZM136.93 41L134.258 35.8906L136.312 35.8828L139.023 40.8984V41H136.93ZM147.961 39.4453V41H141.922V39.4453H147.961ZM142.477 29.625V41H140.516V29.625H142.477ZM147.172 34.375V35.9062H141.922V34.375H147.172ZM147.922 29.625V31.1875H141.922V29.625H147.922Z" fill="white"/>
</svg>
