<svg width="25" height="25" viewBox="0 0 25 25" fill="none" xmlns="http://www.w3.org/2000/svg">
<mask id="path-1-inside-1_190_248" fill="white">
<path d="M12.5 21C7.8 21 4 17.2 4 12.5C4 7.8 7.8 4 12.5 4C17.2 4 21 7.8 21 12.5C21 17.2 17.2 21 12.5 21ZM12.5 5C8.35 5 5 8.35 5 12.5C5 16.65 8.35 20 12.5 20C16.65 20 20 16.65 20 12.5C20 8.35 16.65 5 12.5 5Z"/>
</mask>
<path d="M12.5 21C7.8 21 4 17.2 4 12.5C4 7.8 7.8 4 12.5 4C17.2 4 21 7.8 21 12.5C21 17.2 17.2 21 12.5 21ZM12.5 5C8.35 5 5 8.35 5 12.5C5 16.65 8.35 20 12.5 20C16.65 20 20 16.65 20 12.5C20 8.35 16.65 5 12.5 5Z" fill="white"/>
<path d="M12.5 17C10.0091 17 8 14.9909 8 12.5H0C0 19.4091 5.59086 25 12.5 25V17ZM8 12.5C8 10.0091 10.0091 8 12.5 8V0C5.59086 0 0 5.59086 0 12.5H8ZM12.5 8C14.9909 8 17 10.0091 17 12.5H25C25 5.59086 19.4091 0 12.5 0V8ZM17 12.5C17 14.9909 14.9909 17 12.5 17V25C19.4091 25 25 19.4091 25 12.5H17ZM12.5 1C6.14086 1 1 6.14086 1 12.5H9C9 10.5591 10.5591 9 12.5 9V1ZM1 12.5C1 18.8591 6.14086 24 12.5 24V16C10.5591 16 9 14.4409 9 12.5H1ZM12.5 24C18.8591 24 24 18.8591 24 12.5H16C16 14.4409 14.4409 16 12.5 16V24ZM24 12.5C24 6.14086 18.8591 1 12.5 1V9C14.4409 9 16 10.5591 16 12.5H24Z" fill="white" mask="url(#path-1-inside-1_190_248)"/>
<path d="M8 12H17V13H8V12Z" fill="white"/>
<path d="M12 8H13V17H12V8Z" fill="white"/>
</svg>
