<svg width="189" height="66" viewBox="0 0 189 66" fill="none" xmlns="http://www.w3.org/2000/svg">
<rect x="1" y="1" width="187" height="64" rx="32" stroke="white" stroke-width="2"/>
<circle cx="36" cy="33" r="21" stroke="white" stroke-width="2"/>
<path d="M37.253 27.2578L37.187 27.2178C36.439 26.7628 35.781 26.3618 35.217 26.1598C34.9061 26.0403 34.5737 25.9868 34.241 26.0028C33.8908 26.0295 33.556 26.1581 33.278 26.3728C32.699 26.8068 32.449 27.4458 32.312 28.1528C32.179 28.8378 32.128 29.7298 32.065 30.8158L32.062 30.8718C32.024 31.5218 32 32.1648 32 32.7478C32 33.3308 32.024 33.9748 32.062 34.6248L32.065 34.6798C32.128 35.7658 32.179 36.6578 32.312 37.3418C32.449 38.0498 32.699 38.6878 33.278 39.1228C33.564 39.3378 33.885 39.4658 34.241 39.4928C34.583 39.5178 34.911 39.4458 35.217 39.3358C35.781 39.1338 36.439 38.7328 37.187 38.2788L37.253 38.2388C37.679 37.9788 38.097 37.7118 38.47 37.4488C38.9268 37.1238 39.3721 36.7829 39.805 36.4268L39.855 36.3858C40.619 35.7628 41.267 35.2338 41.715 34.7138C42.203 34.1438 42.5 33.5318 42.5 32.7478C42.5 31.9638 42.203 31.3508 41.714 30.7818C41.267 30.2618 40.619 29.7318 39.856 29.1098L39.806 29.0688C39.352 28.6988 38.896 28.3448 38.47 28.0468C38.0727 27.7707 37.6669 27.5072 37.253 27.2568" fill="white"/>
<path d="M88.5156 34.0391H85.4766V32.8125H88.5156C89.1042 32.8125 89.5807 32.7188 89.9453 32.5312C90.3099 32.3438 90.5755 32.0833 90.7422 31.75C90.9141 31.4167 91 31.0365 91 30.6094C91 30.2188 90.9141 29.8516 90.7422 29.5078C90.5755 29.1641 90.3099 28.888 89.9453 28.6797C89.5807 28.4661 89.1042 28.3594 88.5156 28.3594H85.8281V38.5H84.3203V27.125H88.5156C89.375 27.125 90.1016 27.2734 90.6953 27.5703C91.2891 27.8672 91.7396 28.2786 92.0469 28.8047C92.3542 29.3255 92.5078 29.9219 92.5078 30.5938C92.5078 31.3229 92.3542 31.9453 92.0469 32.4609C91.7396 32.9766 91.2891 33.3698 90.6953 33.6406C90.1016 33.9062 89.375 34.0391 88.5156 34.0391ZM95.7656 26.5V38.5H94.3125V26.5H95.7656ZM103.07 37.0547V32.7031C103.07 32.3698 103.003 32.0807 102.867 31.8359C102.737 31.5859 102.539 31.3932 102.273 31.2578C102.008 31.1224 101.68 31.0547 101.289 31.0547C100.924 31.0547 100.604 31.1172 100.328 31.2422C100.057 31.3672 99.8438 31.5312 99.6875 31.7344C99.5365 31.9375 99.4609 32.1562 99.4609 32.3906H98.0156C98.0156 32.0885 98.0938 31.7891 98.25 31.4922C98.4062 31.1953 98.6302 30.9271 98.9219 30.6875C99.2188 30.4427 99.5729 30.25 99.9844 30.1094C100.401 29.9635 100.865 29.8906 101.375 29.8906C101.99 29.8906 102.531 29.9948 103 30.2031C103.474 30.4115 103.844 30.7266 104.109 31.1484C104.38 31.5651 104.516 32.0885 104.516 32.7188V36.6562C104.516 36.9375 104.539 37.237 104.586 37.5547C104.638 37.8724 104.714 38.1458 104.812 38.375V38.5H103.305C103.232 38.3333 103.174 38.112 103.133 37.8359C103.091 37.5547 103.07 37.2943 103.07 37.0547ZM103.32 33.375L103.336 34.3906H101.875C101.464 34.3906 101.096 34.4245 100.773 34.4922C100.451 34.5547 100.18 34.651 99.9609 34.7812C99.7422 34.9115 99.5755 35.0755 99.4609 35.2734C99.3464 35.4661 99.2891 35.6927 99.2891 35.9531C99.2891 36.2188 99.349 36.4609 99.4688 36.6797C99.5885 36.8984 99.7682 37.0729 100.008 37.2031C100.253 37.3281 100.552 37.3906 100.906 37.3906C101.349 37.3906 101.74 37.2969 102.078 37.1094C102.417 36.9219 102.685 36.6927 102.883 36.4219C103.086 36.151 103.195 35.888 103.211 35.6328L103.828 36.3281C103.792 36.5469 103.693 36.7891 103.531 37.0547C103.37 37.3203 103.154 37.5755 102.883 37.8203C102.617 38.0599 102.299 38.2604 101.93 38.4219C101.565 38.5781 101.154 38.6562 100.695 38.6562C100.122 38.6562 99.6198 38.5443 99.1875 38.3203C98.7604 38.0964 98.4271 37.7969 98.1875 37.4219C97.9531 37.0417 97.8359 36.6172 97.8359 36.1484C97.8359 35.6953 97.9245 35.2969 98.1016 34.9531C98.2786 34.6042 98.5339 34.3151 98.8672 34.0859C99.2005 33.8516 99.6016 33.6745 100.07 33.5547C100.539 33.4349 101.062 33.375 101.641 33.375H103.32ZM109.039 37.625L111.391 30.0469H112.938L109.547 39.8047C109.469 40.013 109.365 40.237 109.234 40.4766C109.109 40.7214 108.948 40.9531 108.75 41.1719C108.552 41.3906 108.312 41.5677 108.031 41.7031C107.755 41.8438 107.424 41.9141 107.039 41.9141C106.924 41.9141 106.779 41.8984 106.602 41.8672C106.424 41.8359 106.299 41.8099 106.227 41.7891L106.219 40.6172C106.26 40.6224 106.326 40.6276 106.414 40.6328C106.508 40.6432 106.573 40.6484 106.609 40.6484C106.938 40.6484 107.216 40.6042 107.445 40.5156C107.674 40.4323 107.867 40.2891 108.023 40.0859C108.185 39.888 108.323 39.6146 108.438 39.2656L109.039 37.625ZM107.312 30.0469L109.508 36.6094L109.883 38.1328L108.844 38.6641L105.734 30.0469H107.312ZM122.32 27.125V38.5H120.836V27.125H122.32ZM125.977 27.125V28.3594H117.188V27.125H125.977ZM131.867 36.5469V30.0469H133.32V38.5H131.938L131.867 36.5469ZM132.141 34.7656L132.742 34.75C132.742 35.3125 132.682 35.8333 132.562 36.3125C132.448 36.7865 132.26 37.1979 132 37.5469C131.74 37.8958 131.398 38.1693 130.977 38.3672C130.555 38.5599 130.042 38.6562 129.438 38.6562C129.026 38.6562 128.648 38.5964 128.305 38.4766C127.966 38.3568 127.674 38.1719 127.43 37.9219C127.185 37.6719 126.995 37.3464 126.859 36.9453C126.729 36.5443 126.664 36.0625 126.664 35.5V30.0469H128.109V35.5156C128.109 35.8958 128.151 36.2109 128.234 36.4609C128.323 36.7057 128.44 36.901 128.586 37.0469C128.737 37.1875 128.904 37.2865 129.086 37.3438C129.273 37.401 129.466 37.4297 129.664 37.4297C130.279 37.4297 130.766 37.3125 131.125 37.0781C131.484 36.8385 131.742 36.5182 131.898 36.1172C132.06 35.7109 132.141 35.2604 132.141 34.7656ZM139.062 30.0469V31.1562H134.492V30.0469H139.062ZM136.039 27.9922H137.484V36.4062C137.484 36.6927 137.529 36.9089 137.617 37.0547C137.706 37.2005 137.82 37.2969 137.961 37.3438C138.102 37.3906 138.253 37.4141 138.414 37.4141C138.534 37.4141 138.659 37.4036 138.789 37.3828C138.924 37.3568 139.026 37.3359 139.094 37.3203L139.102 38.5C138.987 38.5365 138.836 38.5703 138.648 38.6016C138.466 38.638 138.245 38.6562 137.984 38.6562C137.63 38.6562 137.305 38.5859 137.008 38.4453C136.711 38.3047 136.474 38.0703 136.297 37.7422C136.125 37.4089 136.039 36.9609 136.039 36.3984V27.9922ZM140.219 34.3672V34.1875C140.219 33.5781 140.307 33.013 140.484 32.4922C140.661 31.9661 140.917 31.5104 141.25 31.125C141.583 30.7344 141.987 30.4323 142.461 30.2188C142.935 30 143.466 29.8906 144.055 29.8906C144.648 29.8906 145.182 30 145.656 30.2188C146.135 30.4323 146.542 30.7344 146.875 31.125C147.214 31.5104 147.471 31.9661 147.648 32.4922C147.826 33.013 147.914 33.5781 147.914 34.1875V34.3672C147.914 34.9766 147.826 35.5417 147.648 36.0625C147.471 36.5833 147.214 37.0391 146.875 37.4297C146.542 37.8151 146.138 38.1172 145.664 38.3359C145.195 38.5495 144.664 38.6562 144.07 38.6562C143.477 38.6562 142.943 38.5495 142.469 38.3359C141.995 38.1172 141.589 37.8151 141.25 37.4297C140.917 37.0391 140.661 36.5833 140.484 36.0625C140.307 35.5417 140.219 34.9766 140.219 34.3672ZM141.664 34.1875V34.3672C141.664 34.7891 141.714 35.1875 141.812 35.5625C141.911 35.9323 142.06 36.2604 142.258 36.5469C142.461 36.8333 142.714 37.0599 143.016 37.2266C143.318 37.388 143.669 37.4688 144.07 37.4688C144.466 37.4688 144.812 37.388 145.109 37.2266C145.411 37.0599 145.661 36.8333 145.859 36.5469C146.057 36.2604 146.206 35.9323 146.305 35.5625C146.409 35.1875 146.461 34.7891 146.461 34.3672V34.1875C146.461 33.7708 146.409 33.3776 146.305 33.0078C146.206 32.6328 146.055 32.3021 145.852 32.0156C145.654 31.724 145.404 31.4948 145.102 31.3281C144.805 31.1615 144.456 31.0781 144.055 31.0781C143.659 31.0781 143.31 31.1615 143.008 31.3281C142.711 31.4948 142.461 31.724 142.258 32.0156C142.06 32.3021 141.911 32.6328 141.812 33.0078C141.714 33.3776 141.664 33.7708 141.664 34.1875ZM151.172 31.375V38.5H149.727V30.0469H151.133L151.172 31.375ZM153.812 30L153.805 31.3438C153.685 31.3177 153.57 31.3021 153.461 31.2969C153.357 31.2865 153.237 31.2812 153.102 31.2812C152.768 31.2812 152.474 31.3333 152.219 31.4375C151.964 31.5417 151.747 31.6875 151.57 31.875C151.393 32.0625 151.253 32.2865 151.148 32.5469C151.049 32.8021 150.984 33.0833 150.953 33.3906L150.547 33.625C150.547 33.1146 150.596 32.6354 150.695 32.1875C150.799 31.7396 150.958 31.3438 151.172 31C151.385 30.651 151.656 30.3802 151.984 30.1875C152.318 29.9896 152.714 29.8906 153.172 29.8906C153.276 29.8906 153.396 29.9036 153.531 29.9297C153.667 29.9505 153.76 29.974 153.812 30ZM156.719 30.0469V38.5H155.266V30.0469H156.719ZM155.156 27.8047C155.156 27.5703 155.227 27.3724 155.367 27.2109C155.513 27.0495 155.727 26.9688 156.008 26.9688C156.284 26.9688 156.495 27.0495 156.641 27.2109C156.792 27.3724 156.867 27.5703 156.867 27.8047C156.867 28.0286 156.792 28.2214 156.641 28.3828C156.495 28.5391 156.284 28.6172 156.008 28.6172C155.727 28.6172 155.513 28.5391 155.367 28.3828C155.227 28.2214 155.156 28.0286 155.156 27.8047ZM164.023 37.0547V32.7031C164.023 32.3698 163.956 32.0807 163.82 31.8359C163.69 31.5859 163.492 31.3932 163.227 31.2578C162.961 31.1224 162.633 31.0547 162.242 31.0547C161.878 31.0547 161.557 31.1172 161.281 31.2422C161.01 31.3672 160.797 31.5312 160.641 31.7344C160.49 31.9375 160.414 32.1562 160.414 32.3906H158.969C158.969 32.0885 159.047 31.7891 159.203 31.4922C159.359 31.1953 159.583 30.9271 159.875 30.6875C160.172 30.4427 160.526 30.25 160.938 30.1094C161.354 29.9635 161.818 29.8906 162.328 29.8906C162.943 29.8906 163.484 29.9948 163.953 30.2031C164.427 30.4115 164.797 30.7266 165.062 31.1484C165.333 31.5651 165.469 32.0885 165.469 32.7188V36.6562C165.469 36.9375 165.492 37.237 165.539 37.5547C165.591 37.8724 165.667 38.1458 165.766 38.375V38.5H164.258C164.185 38.3333 164.128 38.112 164.086 37.8359C164.044 37.5547 164.023 37.2943 164.023 37.0547ZM164.273 33.375L164.289 34.3906H162.828C162.417 34.3906 162.049 34.4245 161.727 34.4922C161.404 34.5547 161.133 34.651 160.914 34.7812C160.695 34.9115 160.529 35.0755 160.414 35.2734C160.299 35.4661 160.242 35.6927 160.242 35.9531C160.242 36.2188 160.302 36.4609 160.422 36.6797C160.542 36.8984 160.721 37.0729 160.961 37.2031C161.206 37.3281 161.505 37.3906 161.859 37.3906C162.302 37.3906 162.693 37.2969 163.031 37.1094C163.37 36.9219 163.638 36.6927 163.836 36.4219C164.039 36.151 164.148 35.888 164.164 35.6328L164.781 36.3281C164.745 36.5469 164.646 36.7891 164.484 37.0547C164.323 37.3203 164.107 37.5755 163.836 37.8203C163.57 38.0599 163.253 38.2604 162.883 38.4219C162.518 38.5781 162.107 38.6562 161.648 38.6562C161.076 38.6562 160.573 38.5443 160.141 38.3203C159.714 38.0964 159.38 37.7969 159.141 37.4219C158.906 37.0417 158.789 36.6172 158.789 36.1484C158.789 35.6953 158.878 35.2969 159.055 34.9531C159.232 34.6042 159.487 34.3151 159.82 34.0859C160.154 33.8516 160.555 33.6745 161.023 33.5547C161.492 33.4349 162.016 33.375 162.594 33.375H164.273ZM169.312 26.5V38.5H167.859V26.5H169.312Z" fill="white"/>
</svg>
