<svg width="15" height="15" viewBox="0 0 15 15" fill="none" xmlns="http://www.w3.org/2000/svg">
<g clip-path="url(#clip0_255_175)">
<path d="M0 11.2501C0 11.6921 0.175595 12.116 0.488155 12.4286C0.800716 12.7412 1.22464 12.9167 1.66667 12.9167H13.3333C13.7754 12.9167 14.1993 12.7412 14.5118 12.4286C14.8244 12.116 15 11.6921 15 11.2501V9.16675H0V11.2501Z" fill="#138808"/>
<path d="M15 5.83325V3.74992C15 3.30789 14.8244 2.88397 14.5118 2.57141C14.1993 2.25885 13.7754 2.08325 13.3333 2.08325H1.66667C1.22464 2.08325 0.800716 2.25885 0.488155 2.57141C0.175595 2.88397 0 3.30789 0 3.74992L0 5.83325H15Z" fill="#FF9933"/>
<path d="M0 5.69458H15V9.30583H0V5.69458Z" fill="#F7F7F7"/>
<path d="M7.49992 9.16659C8.42039 9.16659 9.16659 8.42039 9.16659 7.49992C9.16659 6.57944 8.42039 5.83325 7.49992 5.83325C6.57944 5.83325 5.83325 6.57944 5.83325 7.49992C5.83325 8.42039 6.57944 9.16659 7.49992 9.16659Z" fill="#000080"/>
<path d="M7.5 8.90625C8.27665 8.90625 8.90625 8.27665 8.90625 7.5C8.90625 6.72335 8.27665 6.09375 7.5 6.09375C6.72335 6.09375 6.09375 6.72335 6.09375 7.5C6.09375 8.27665 6.72335 8.90625 7.5 8.90625Z" fill="#F7F7F7"/>
<path d="M7.54175 6.97925L7.50008 7.25008L7.45841 6.97925L7.50008 6.16675L7.54175 6.97925ZM7.15508 6.21216L7.32508 7.00758L7.4355 7.25841L7.4055 6.98633L7.15508 6.21216ZM6.83341 6.3455L7.20341 7.06966L7.37508 7.28341L7.27591 7.028L6.83341 6.3455ZM6.55716 6.55716L7.10216 7.16133L7.32341 7.32341L7.16133 7.10216L6.55716 6.55716ZM6.3455 6.83341L7.028 7.27591L7.28341 7.37508L7.06966 7.20341L6.3455 6.83341ZM6.21216 7.15508L6.98633 7.4055L7.25841 7.4355L7.00758 7.32508L6.21216 7.15508ZM6.16675 7.50008L6.97925 7.54175L7.25008 7.50008L6.97925 7.45841L6.16675 7.50008ZM6.21216 7.84508L7.00758 7.67508L7.25841 7.56466L6.98633 7.59466L6.21216 7.84508ZM6.3455 8.16675L7.06966 7.79675L7.28341 7.62508L7.028 7.72425L6.3455 8.16675ZM6.55716 8.443L7.16133 7.898L7.32341 7.67675L7.10216 7.83883L6.55716 8.443ZM6.83341 8.65466L7.27591 7.97216L7.37508 7.71675L7.20341 7.9305L6.83341 8.65466ZM7.15508 8.788L7.4055 8.01383L7.4355 7.74175L7.32508 7.99258L7.15508 8.788ZM7.50008 8.83342L7.54175 8.02091L7.50008 7.75008L7.45841 8.02091L7.50008 8.83342ZM7.84508 8.788L7.67508 7.99258L7.56466 7.74175L7.59466 8.01383L7.84508 8.788ZM8.16675 8.65466L7.79675 7.9305L7.62508 7.71675L7.72425 7.97216L8.16675 8.65466ZM8.443 8.443L7.898 7.83883L7.67675 7.67675L7.83883 7.898L8.443 8.443ZM8.65466 8.16675L7.97216 7.72425L7.71675 7.62508L7.9305 7.79675L8.65466 8.16675ZM8.788 7.84508L8.01383 7.59466L7.74175 7.56466L7.99258 7.67508L8.788 7.84508ZM8.83342 7.50008L8.02091 7.45841L7.75008 7.50008L8.02091 7.54175L8.83342 7.50008ZM8.788 7.15508L7.99258 7.32508L7.74175 7.4355L8.01383 7.4055L8.788 7.15508ZM8.65466 6.83341L7.9305 7.20341L7.71675 7.37508L7.97216 7.27591L8.65466 6.83341ZM8.443 6.55716L7.83883 7.10216L7.67675 7.32341L7.898 7.16133L8.443 6.55716ZM8.16675 6.3455L7.72425 7.028L7.62508 7.28341L7.79675 7.06966L8.16675 6.3455ZM7.84508 6.21216L7.59466 6.98633L7.56466 7.25841L7.67508 7.00758L7.84508 6.21216Z" fill="#6666B3"/>
<path d="M7.31673 6.19133C7.36276 6.19133 7.40006 6.15402 7.40006 6.10799C7.40006 6.06197 7.36276 6.02466 7.31673 6.02466C7.27071 6.02466 7.2334 6.06197 7.2334 6.10799C7.2334 6.15402 7.27071 6.19133 7.31673 6.19133Z" fill="#000080"/>
<path d="M6.96248 6.2863C7.00851 6.2863 7.04582 6.24899 7.04582 6.20296C7.04582 6.15694 7.00851 6.11963 6.96248 6.11963C6.91646 6.11963 6.87915 6.15694 6.87915 6.20296C6.87915 6.24899 6.91646 6.2863 6.96248 6.2863Z" fill="#000080"/>
<path d="M6.6451 6.46916C6.69112 6.46916 6.72843 6.43185 6.72843 6.38582C6.72843 6.3398 6.69112 6.30249 6.6451 6.30249C6.59908 6.30249 6.56177 6.3398 6.56177 6.38582C6.56177 6.43185 6.59908 6.46916 6.6451 6.46916Z" fill="#000080"/>
<path d="M6.38582 6.72843C6.43185 6.72843 6.46916 6.69112 6.46916 6.6451C6.46916 6.59908 6.43185 6.56177 6.38582 6.56177C6.3398 6.56177 6.30249 6.59908 6.30249 6.6451C6.30249 6.69112 6.3398 6.72843 6.38582 6.72843Z" fill="#000080"/>
<path d="M6.20296 7.04582C6.24899 7.04582 6.2863 7.00851 6.2863 6.96248C6.2863 6.91646 6.24899 6.87915 6.20296 6.87915C6.15694 6.87915 6.11963 6.91646 6.11963 6.96248C6.11963 7.00851 6.15694 7.04582 6.20296 7.04582Z" fill="#000080"/>
<path d="M6.10799 7.40006C6.15402 7.40006 6.19133 7.36276 6.19133 7.31673C6.19133 7.27071 6.15402 7.2334 6.10799 7.2334C6.06197 7.2334 6.02466 7.27071 6.02466 7.31673C6.02466 7.36276 6.06197 7.40006 6.10799 7.40006Z" fill="#000080"/>
<path d="M6.10799 7.76676C6.15402 7.76676 6.19133 7.72946 6.19133 7.68343C6.19133 7.63741 6.15402 7.6001 6.10799 7.6001C6.06197 7.6001 6.02466 7.63741 6.02466 7.68343C6.02466 7.72946 6.06197 7.76676 6.10799 7.76676Z" fill="#000080"/>
<path d="M6.20296 8.12101C6.24899 8.12101 6.2863 8.0837 6.2863 8.03768C6.2863 7.99166 6.24899 7.95435 6.20296 7.95435C6.15694 7.95435 6.11963 7.99166 6.11963 8.03768C6.11963 8.0837 6.15694 8.12101 6.20296 8.12101Z" fill="#000080"/>
<path d="M6.38582 8.4384C6.43185 8.4384 6.46916 8.40109 6.46916 8.35506C6.46916 8.30904 6.43185 8.27173 6.38582 8.27173C6.3398 8.27173 6.30249 8.30904 6.30249 8.35506C6.30249 8.40109 6.3398 8.4384 6.38582 8.4384Z" fill="#000080"/>
<path d="M6.6451 8.69767C6.69112 8.69767 6.72843 8.66036 6.72843 8.61434C6.72843 8.56831 6.69112 8.53101 6.6451 8.53101C6.59908 8.53101 6.56177 8.56831 6.56177 8.61434C6.56177 8.66036 6.59908 8.69767 6.6451 8.69767Z" fill="#000080"/>
<path d="M6.96248 8.88053C7.00851 8.88053 7.04582 8.84322 7.04582 8.7972C7.04582 8.75118 7.00851 8.71387 6.96248 8.71387C6.91646 8.71387 6.87915 8.75118 6.87915 8.7972C6.87915 8.84322 6.91646 8.88053 6.96248 8.88053Z" fill="#000080"/>
<path d="M7.31673 8.9755C7.36276 8.9755 7.40006 8.93819 7.40006 8.89217C7.40006 8.84615 7.36276 8.80884 7.31673 8.80884C7.27071 8.80884 7.2334 8.84615 7.2334 8.89217C7.2334 8.93819 7.27071 8.9755 7.31673 8.9755Z" fill="#000080"/>
<path d="M7.68343 8.9755C7.72946 8.9755 7.76676 8.93819 7.76676 8.89217C7.76676 8.84615 7.72946 8.80884 7.68343 8.80884C7.63741 8.80884 7.6001 8.84615 7.6001 8.89217C7.6001 8.93819 7.63741 8.9755 7.68343 8.9755Z" fill="#000080"/>
<path d="M8.03768 8.88053C8.0837 8.88053 8.12101 8.84322 8.12101 8.7972C8.12101 8.75118 8.0837 8.71387 8.03768 8.71387C7.99166 8.71387 7.95435 8.75118 7.95435 8.7972C7.95435 8.84322 7.99166 8.88053 8.03768 8.88053Z" fill="#000080"/>
<path d="M8.35506 8.69767C8.40109 8.69767 8.4384 8.66036 8.4384 8.61434C8.4384 8.56831 8.40109 8.53101 8.35506 8.53101C8.30904 8.53101 8.27173 8.56831 8.27173 8.61434C8.27173 8.66036 8.30904 8.69767 8.35506 8.69767Z" fill="#000080"/>
<path d="M8.61434 8.4384C8.66036 8.4384 8.69767 8.40109 8.69767 8.35506C8.69767 8.30904 8.66036 8.27173 8.61434 8.27173C8.56831 8.27173 8.53101 8.30904 8.53101 8.35506C8.53101 8.40109 8.56831 8.4384 8.61434 8.4384Z" fill="#000080"/>
<path d="M8.7972 8.12101C8.84322 8.12101 8.88053 8.0837 8.88053 8.03768C8.88053 7.99166 8.84322 7.95435 8.7972 7.95435C8.75118 7.95435 8.71387 7.99166 8.71387 8.03768C8.71387 8.0837 8.75118 8.12101 8.7972 8.12101Z" fill="#000080"/>
<path d="M8.89217 7.76676C8.93819 7.76676 8.9755 7.72946 8.9755 7.68343C8.9755 7.63741 8.93819 7.6001 8.89217 7.6001C8.84615 7.6001 8.80884 7.63741 8.80884 7.68343C8.80884 7.72946 8.84615 7.76676 8.89217 7.76676Z" fill="#000080"/>
<path d="M8.89217 7.40006C8.93819 7.40006 8.9755 7.36276 8.9755 7.31673C8.9755 7.27071 8.93819 7.2334 8.89217 7.2334C8.84615 7.2334 8.80884 7.27071 8.80884 7.31673C8.80884 7.36276 8.84615 7.40006 8.89217 7.40006Z" fill="#000080"/>
<path d="M8.7972 7.04582C8.84322 7.04582 8.88053 7.00851 8.88053 6.96248C8.88053 6.91646 8.84322 6.87915 8.7972 6.87915C8.75118 6.87915 8.71387 6.91646 8.71387 6.96248C8.71387 7.00851 8.75118 7.04582 8.7972 7.04582Z" fill="#000080"/>
<path d="M8.61434 6.72843C8.66036 6.72843 8.69767 6.69112 8.69767 6.6451C8.69767 6.59908 8.66036 6.56177 8.61434 6.56177C8.56831 6.56177 8.53101 6.59908 8.53101 6.6451C8.53101 6.69112 8.56831 6.72843 8.61434 6.72843Z" fill="#000080"/>
<path d="M8.35506 6.46916C8.40109 6.46916 8.4384 6.43185 8.4384 6.38582C8.4384 6.3398 8.40109 6.30249 8.35506 6.30249C8.30904 6.30249 8.27173 6.3398 8.27173 6.38582C8.27173 6.43185 8.30904 6.46916 8.35506 6.46916Z" fill="#000080"/>
<path d="M8.03768 6.2863C8.0837 6.2863 8.12101 6.24899 8.12101 6.20296C8.12101 6.15694 8.0837 6.11963 8.03768 6.11963C7.99166 6.11963 7.95435 6.15694 7.95435 6.20296C7.95435 6.24899 7.99166 6.2863 8.03768 6.2863Z" fill="#000080"/>
<path d="M7.68343 6.19133C7.72946 6.19133 7.76676 6.15402 7.76676 6.10799C7.76676 6.06197 7.72946 6.02466 7.68343 6.02466C7.63741 6.02466 7.6001 6.06197 7.6001 6.10799C7.6001 6.15402 7.63741 6.19133 7.68343 6.19133Z" fill="#000080"/>
<path d="M7.5 7.875C7.70711 7.875 7.875 7.70711 7.875 7.5C7.875 7.29289 7.70711 7.125 7.5 7.125C7.29289 7.125 7.125 7.29289 7.125 7.5C7.125 7.70711 7.29289 7.875 7.5 7.875Z" fill="#000080"/>
</g>
<defs>
<clipPath id="clip0_255_175">
<rect width="15" height="15" fill="white"/>
</clipPath>
</defs>
</svg>
